<svg xmlns="http://www.w3.org/2000/svg" viewBox="0 0 820 360" role="img" aria-labelledby="title desc">
    <title id="title">The Kid Coding Class logo</title>
    <desc id="desc">A friendly robot laptop beside The Kid Coding Class wordmark with Build Code Create tagline.</desc>
    <rect width="820" height="360" fill="#FFF9F0"/>
    <g transform="translate(120 86)">
        <ellipse cx="100" cy="204" rx="72" ry="13" fill="#E8DED0"/>
        <g transform="rotate(-7 100 112)">
            <path d="M56 92h88l24 104H32z" fill="#2D2A4A"/>
            <path d="M48 102h104l15 68H33z" fill="#FFFFFF"/>
            <path d="M47 174h106l34 32H22z" fill="#6F66D8"/>
            <path d="M67 179h83l17 14H47z" fill="#8C84EA"/>
            <text x="62" y="149" font-family="Quicksand, Arial, sans-serif" font-size="34" font-weight="700" fill="#1D9E75">&lt;/</text>
            <text x="116" y="149" font-family="Quicksand, Arial, sans-serif" font-size="34" font-weight="700" fill="#D85A30">=</text>
        </g>
        <rect x="44" y="42" width="120" height="98" rx="28" fill="#6F66D8"/>
        <rect x="58" y="58" width="92" height="62" rx="16" fill="#17274D"/>
        <rect x="13" y="74" width="32" height="61" rx="16" fill="#FAC765"/>
        <rect x="163" y="74" width="32" height="61" rx="16" fill="#FAC765"/>
        <path d="M104 42V18" stroke="#17274D" stroke-width="16" stroke-linecap="round"/>
        <circle cx="104" cy="10" r="16" fill="#E95723"/>
        <circle cx="110" cy="4" r="5" fill="#F58154"/>
        <path d="M75 85c0-12 10-18 20-8" stroke="#FFF9F0" stroke-width="8" stroke-linecap="round" fill="none"/>
        <path d="M116 85c0-12 10-18 20-8" stroke="#FFF9F0" stroke-width="8" stroke-linecap="round" fill="none"/>
        <path d="M88 102c14 18 33 18 47 0" stroke="#FFF9F0" stroke-width="8" stroke-linecap="round" fill="none"/>
    </g>
    <g font-family="Boogaloo, Quicksand, Arial, sans-serif" font-weight="700">
        <text x="310" y="110" font-size="76" fill="#6F66D8">The</text>
        <text x="474" y="110" font-size="76" fill="#E95723">Kid</text>
        <text x="324" y="204" font-size="98" fill="#6F66D8">Coding</text>
        <text x="420" y="298" font-size="84" fill="#E95723">Class</text>
    </g>
    <g fill="none" stroke-linecap="round">
        <path d="M391 318c79 18 176 17 254-7" stroke="#6F66D8" stroke-width="7"/>
        <path d="M656 52l7-38" stroke="#FAA51A" stroke-width="8"/>
        <path d="M681 65l21-28" stroke="#FAA51A" stroke-width="8"/>
    </g>
    <path d="M674 92l9 16 18 2-13 12 3 18-17-9-16 9 3-18-13-12 18-2z" fill="#6F66D8"/>
    <circle cx="664" cy="157" r="8" fill="#1D9E75"/>
    <circle cx="694" cy="160" r="7" fill="#FAA51A"/>
    <g font-family="Quicksand, Arial, sans-serif" font-size="24" font-weight="700" letter-spacing="10">
        <text x="256" y="338" fill="#1D9E75">BUILD</text>
        <text x="389" y="338" fill="#6F66D8">CODE</text>
        <text x="508" y="338" fill="#E95723">CREATE</text>
        <circle cx="370" cy="330" r="4" fill="#6F66D8"/>
        <circle cx="488" cy="330" r="4" fill="#E95723"/>
    </g>
</svg>
