<svg xmlns="http://www.w3.org/2000/svg" viewBox="0 0 1130 260" role="img" aria-labelledby="title desc">
    <title id="title">The Kid Coding Class logo</title>
    <desc id="desc">A smiling purple robot mark beside The Kid Coding Class wordmark.</desc>
    <g transform="translate(50 44)">
        <rect x="86" y="5" width="16" height="44" rx="8" fill="#172B58"/>
        <circle cx="94" cy="0" r="18" fill="#E95625"/>
        <ellipse cx="100" cy="-6" rx="5" ry="4" fill="#FF8B61"/>
        <rect x="6" y="82" width="34" height="70" rx="17" fill="#FAC765"/>
        <rect x="150" y="82" width="34" height="70" rx="17" fill="#FAC765"/>
        <rect x="32" y="46" width="124" height="118" rx="38" fill="#7067DE"/>
        <path d="M36 126c11 30 42 46 91 46h16c-18 14-46 20-83 18-35-2-51-24-48-64z" fill="#544CC5" opacity=".48"/>
        <rect x="52" y="78" width="84" height="56" rx="20" fill="#142B58"/>
        <path d="M69 102c0-11 7-18 17-18 10 0 17 7 17 18" stroke="#FFF9F0" stroke-width="8" stroke-linecap="round"/>
        <path d="M102 102c0-11 7-18 17-18 10 0 17 7 17 18" stroke="#FFF9F0" stroke-width="8" stroke-linecap="round"/>
        <path d="M81 122c11 14 26 14 37 0" stroke="#FFF9F0" stroke-width="8" stroke-linecap="round"/>
        <rect x="160" y="38" width="11" height="34" rx="5.5" transform="rotate(24 160 38)" fill="#7067DE"/>
        <rect x="184" y="47" width="11" height="34" rx="5.5" transform="rotate(39 184 47)" fill="#E95625"/>
        <rect x="195" y="82" width="11" height="34" rx="5.5" transform="rotate(76 195 82)" fill="#1D9E75"/>
    </g>
    <g font-family="Boogaloo, Quicksand, Arial, sans-serif" font-weight="700">
        <text x="298" y="155" font-size="72" fill="#7067DE">The</text>
        <text x="462" y="155" font-size="72" fill="#E95625">Kid</text>
        <text x="622" y="155" font-size="72" fill="#7067DE">Coding</text>
        <text x="902" y="155" font-size="72" fill="#E95625">Class</text>
    </g>
</svg>
